<svg width="50" height="51" viewBox="0 0 50 51" fill="none" xmlns="http://www.w3.org/2000/svg">
<path d="M35.3718 49.461H14.3718C12.7703 49.4645 11.2098 48.9546 9.91941 48.0061C8.62897 47.0576 7.67652 45.7205 7.20184 44.191L1.84184 23.111C1.49044 21.9864 1.40853 20.795 1.60274 19.633C1.79696 18.4709 2.26184 17.3709 2.95982 16.4218C3.65781 15.4726 4.5693 14.701 5.62065 14.1693C6.67199 13.6376 7.83369 13.3607 9.01184 13.361H40.6918C41.87 13.3607 43.0317 13.6376 44.083 14.1693C45.1344 14.701 46.0459 15.4726 46.7439 16.4218C47.4418 17.3709 47.9067 18.4709 48.1009 19.633C48.2952 20.795 48.2132 21.9864 47.8618 23.111L42.5418 44.191C42.0658 45.7197 41.113 47.0559 39.8228 48.0042C38.5327 48.9524 36.973 49.4629 35.3718 49.461Z" stroke="black" stroke-width="3" stroke-miterlimit="10"/>
<path d="M33.9019 20.571V10.861C33.9422 9.64652 33.7379 8.43637 33.301 7.30252C32.8641 6.16867 32.2036 5.13428 31.3588 4.26092C30.514 3.38755 29.5021 2.69305 28.3834 2.21874C27.2647 1.74443 26.062 1.5 24.8469 1.5C23.6318 1.5 22.4291 1.74443 21.3103 2.21874C20.1916 2.69305 19.1798 3.38755 18.3349 4.26092C17.4901 5.13428 16.8296 6.16867 16.3927 7.30252C15.9558 8.43637 15.7515 9.64652 15.7919 10.861V20.571" stroke="black" stroke-width="3" stroke-miterlimit="10"/>
</svg>
