<svg width="53" height="49" viewBox="0 0 53 49" fill="none" xmlns="http://www.w3.org/2000/svg">
<path d="M1.5 40.3586C1.5 37.0434 2.81696 33.864 5.16116 31.5198C7.50537 29.1756 10.6848 27.8586 14 27.8586H39C42.3152 27.8586 45.4946 29.1756 47.8388 31.5198C50.183 33.864 51.5 37.0434 51.5 40.3586C51.5 42.0162 50.8415 43.606 49.6694 44.7781C48.4973 45.9502 46.9076 46.6086 45.25 46.6086H7.75C6.0924 46.6086 4.50268 45.9502 3.33058 44.7781C2.15848 43.606 1.5 42.0162 1.5 40.3586Z" stroke="black" stroke-width="3" stroke-linejoin="round"/>
<path d="M26.5 20.25C31.6777 20.25 35.875 16.0527 35.875 10.875C35.875 5.69733 31.6777 1.5 26.5 1.5C21.3223 1.5 17.125 5.69733 17.125 10.875C17.125 16.0527 21.3223 20.25 26.5 20.25Z" stroke="black" stroke-width="3"/>
</svg>
