<svg width="30" height="30" viewBox="0 0 30 30" fill="none" xmlns="http://www.w3.org/2000/svg">
<path d="M19.9148 19.163C21.5318 17.1366 22.5531 14.5374 22.5531 11.674C22.5531 5.24229 17.4893 0 11.2765 0C5.0638 0 0 5.24229 0 11.674C0 18.1057 5.0638 23.348 11.2765 23.348C13.9999 23.348 16.5531 22.3348 18.5105 20.6167L27.2765 29.6916C27.4892 29.9119 27.7445 30 27.9999 30C28.2552 30 28.5105 29.9119 28.7233 29.6916C29.1062 29.2952 29.1062 28.5903 28.7233 28.1938L19.9148 19.163ZM11.234 21.2335C6.12763 21.2335 1.99999 16.9604 1.99999 11.674C1.99999 6.38767 6.12763 2.11454 11.234 2.11454C16.3403 2.11454 20.468 6.38767 20.468 11.674C20.468 16.9604 16.3403 21.2335 11.234 21.2335Z" fill="#717171"/>
</svg>
